<?xml version="1.0" encoding="UTF-8" standalone="no"?>
<svg
   xmlns:dc="http://purl.org/dc/elements/1.1/"
   xmlns:cc="http://creativecommons.org/ns#"
   xmlns:rdf="http://www.w3.org/1999/02/22-rdf-syntax-ns#"
   xmlns:svg="http://www.w3.org/2000/svg"
   xmlns="http://www.w3.org/2000/svg"
   xmlns:sodipodi="http://sodipodi.sourceforge.net/DTD/sodipodi-0.dtd"
   xmlns:inkscape="http://www.inkscape.org/namespaces/inkscape"
   version="1.1"
   id="svg2"
   xml:space="preserve"
   width="1140.1169"
   height="1108.0731"
   viewBox="0 0 1140.1169 1108.0731"
   sodipodi:docname="logo.svg"
   inkscape:version="0.92.4 (5da689c313, 2019-01-14)"><sodipodi:namedview
     pagecolor="#ffffff"
     bordercolor="#666666"
     borderopacity="1"
     objecttolerance="10"
     gridtolerance="10"
     guidetolerance="10"
     inkscape:pageopacity="0"
     inkscape:pageshadow="2"
     inkscape:window-width="1920"
     inkscape:window-height="1051"
     id="namedview25"
     showgrid="false"
     inkscape:zoom="0.54700772"
     inkscape:cx="-31.824464"
     inkscape:cy="599.69568"
     inkscape:window-x="0"
     inkscape:window-y="0"
     inkscape:window-maximized="1"
     inkscape:current-layer="g4600"
     fit-margin-top="0"
     fit-margin-left="0"
     fit-margin-right="0"
     fit-margin-bottom="0" /><metadata
     id="metadata8"><rdf:RDF><cc:Work
         rdf:about=""><dc:format>image/svg+xml</dc:format><dc:type
           rdf:resource="http://purl.org/dc/dcmitype/StillImage" /><dc:title></dc:title></cc:Work></rdf:RDF></metadata><defs
     id="defs6"><clipPath
       clipPathUnits="userSpaceOnUse"
       id="clipPath18"><path
         d="M 0,306.233 H 1108.932 V 0 H 0 Z"
         id="path16"
         inkscape:connector-curvature="0" /></clipPath></defs><g
     id="g10"
     transform="matrix(1.0280287,0,0,-1.0280287,0.24439447,962.93737)"><g
       id="g12"><g
         id="g14"
         clip-path="url(#clipPath18)"><g
           id="g20"
           transform="translate(237.6545,199.4743)"><path
             d="m 0,0 c -1.752,59.313 -51.273,106.071 -110.612,106.071 h -105.309 c -12.427,0 -22.5,-10.073 -22.5,-22.5 v -259.36 c 0,-11.728 8.772,-21.886 20.455,-22.918 13.346,-1.177 24.545,9.308 24.545,22.41 V 53.818 c 0,4.006 3.247,7.253 7.253,7.253 h 75.877 c 34.261,0 64.183,-27.977 65.305,-62.219 1.001,-30.552 -19.268,-57.273 -48.639,-64.625 -2.407,-0.558 -4.767,-1.524 -6.983,-2.919 -8.071,-5.082 -12.084,-14.95 -9.841,-24.22 0.789,-3.264 2.233,-6.175 4.152,-8.633 l 65.188,-87.658 c 6.999,-9.411 20.099,-12.328 30.09,-6.184 11.413,7.019 14.142,22.116 6.323,32.629 l -48.636,65.401 C -19.926,-77.526 1.206,-40.792 0,0"
             style="fill:#d41f28;fill-opacity:1;fill-rule:nonzero;stroke:none"
             id="path22"
             inkscape:connector-curvature="0" /></g><g
           id="g24"
           transform="translate(415.9186,260.5455)"><path
             d="m 0,0 c 28.697,0 55.676,-11.175 75.967,-31.466 8.787,-8.789 23.034,-8.788 31.819,-10e-4 8.787,8.786 8.788,23.033 0.001,31.82 C 78.997,29.145 40.718,45 0,45 c -84.052,0 -152.434,-68.382 -152.434,-152.434 0,-84.052 68.382,-152.434 152.434,-152.434 40.718,0 78.997,15.856 107.787,44.647 8.787,8.786 8.786,23.034 -0.001,31.82 -8.787,8.787 -23.032,8.786 -31.819,-10e-4 -20.291,-20.291 -47.27,-31.466 -75.967,-31.466 -59.239,0 -107.434,48.195 -107.434,107.434 C -107.434,-48.194 -59.239,0 0,0"
             style="fill:#d41f28;fill-opacity:1;fill-rule:nonzero;stroke:none"
             id="path26"
             inkscape:connector-curvature="0" /></g><g
           id="g28"
           transform="translate(698.5114,45.6774)"><path
             d="m 0,0 c -59.239,0 -107.435,48.195 -107.435,107.435 0,59.239 48.196,107.433 107.435,107.433 59.239,0 107.435,-48.194 107.435,-107.433 C 107.435,48.195 59.239,0 0,0 m 0,259.868 c -84.053,0 -152.435,-68.382 -152.435,-152.433 C -152.435,23.382 -84.053,-45 0,-45 84.053,-45 152.435,23.382 152.435,107.435 152.435,191.486 84.053,259.868 0,259.868"
             style="fill:#d41f28;fill-opacity:1;fill-rule:nonzero;stroke:none"
             id="path30"
             inkscape:connector-curvature="0" /></g><g
           id="g32"
           transform="translate(1100.3425,125.8307)"><path
             d="m 0,0 -0.001,0.001 c -5.531,9.822 -12.992,17.989 -22.177,24.273 -8.808,6.014 -18.992,10.852 -30.269,14.378 -10.702,3.342 -21.95,6.286 -33.434,8.75 -11.309,2.417 -22.489,4.727 -33.233,6.869 -10.302,2.046 -19.858,4.73 -28.402,7.979 -8.056,3.061 -14.888,6.979 -20.308,11.644 -4.761,4.096 -7.727,9.523 -9.073,16.603 -1.141,5.743 -0.803,11.352 1.035,17.148 1.825,5.755 5.238,11.132 10.145,15.979 5.027,4.96 12.046,9.121 20.86,12.369 9.022,3.319 20.473,5.002 34.036,5.002 8.818,0 17.497,-1.066 25.791,-3.167 7.998,-2.03 15.192,-5.207 21.384,-9.443 5.887,-4.038 10.609,-9.317 14.03,-15.69 3.402,-6.354 5.127,-14.117 5.127,-23.076 0.011,-8.86 5.979,-22.041 22.377,-22.041 8.17,0 13.109,3.39 15.814,6.233 5.816,6.116 5.898,14.375 5.856,15.943 -0.017,12.247 -2.36,23.922 -6.961,34.703 -4.686,10.977 -11.792,20.739 -21.12,29.012 -9.24,8.18 -20.921,14.686 -34.718,19.338 -13.603,4.578 -29.611,6.898 -47.58,6.898 -17.636,0 -33.52,-2.176 -47.209,-6.468 -13.859,-4.343 -25.625,-10.325 -34.971,-17.78 -9.503,-7.579 -16.801,-16.465 -21.689,-26.412 -4.906,-9.975 -7.392,-20.42 -7.392,-31.048 0,-14.933 3.107,-27.586 9.236,-37.606 5.971,-9.783 13.86,-17.9 23.448,-24.125 9.214,-5.994 19.88,-10.809 31.703,-14.311 11.272,-3.346 22.999,-6.282 34.852,-8.727 11.479,-2.372 22.919,-4.853 33.999,-7.376 10.445,-2.387 19.777,-5.563 27.734,-9.441 7.432,-3.626 13.508,-8.307 18.057,-13.912 4.145,-5.119 6.159,-11.861 6.159,-20.612 0,-6.43 -1.26,-12.611 -3.747,-18.371 -2.419,-5.609 -6.261,-10.65 -11.421,-14.981 -5.304,-4.455 -12.418,-8.081 -21.144,-10.778 -8.998,-2.779 -19.951,-4.189 -32.555,-4.189 -10.855,0 -21.136,1.139 -30.556,3.385 -9.074,2.157 -17.146,5.641 -23.994,10.356 -6.677,4.591 -12.227,10.659 -16.496,18.036 -4.248,7.324 -6.923,16.486 -7.944,27.148 -0.022,2.433 -0.563,10.861 -6.535,17.118 -3.984,4.171 -9.498,6.435 -15.947,6.548 -7.883,0.106 -12.808,-3.177 -15.544,-5.997 -6.482,-6.679 -6.531,-16.311 -6.476,-18.146 0.017,-16.123 3.077,-30.437 9.097,-42.545 6.042,-12.148 14.591,-22.469 25.41,-30.676 10.657,-8.098 23.397,-14.199 37.866,-18.135 14.161,-3.85 29.657,-5.803 46.059,-5.803 36.763,0 65.931,7.561 86.694,22.474 C -2.51,-87.146 8.452,-65.044 8.452,-36.975 8.452,-22.417 5.607,-9.977 0,0"
             style="fill:#d41f28;fill-opacity:1;fill-rule:nonzero;stroke:none"
             id="path34"
             inkscape:connector-curvature="0" /></g></g></g></g><path
     d="m 37.101139,590.91135 c 10e-7,-95.163 25.384431,-186.71163 71.372261,-266.36487 M 433.06268,76.024672 c 44.79257,-11.89537 90.78039,-17.84306 136.76821,-17.84306 91.97565,10e-6 183.95129,23.79076 266.36487,71.372258 164.82714,95.163 266.36484,271.0315 266.36484,461.3575"
     style="fill:none;stroke:#d41f28;stroke-width:72.58094788;stroke-linecap:round;stroke-miterlimit:4;stroke-dasharray:none;stroke-opacity:1"
     id="path3787"
     inkscape:connector-curvature="0"
     sodipodi:nodetypes="cccssc" /><g
     transform="rotate(43.888523,-1101.7736,1167.2547)"
     id="g4600"><g
   id="g4612"
   transform="translate(11.055218,29.951757)"><rect
     y="-609.31122"
     x="-980.82495"
     height="198.23817"
     width="283.9722"
     id="rect4594"
     style="fill:#d41f28;fill-opacity:1;stroke:none;stroke-width:56.64325333;stroke-linecap:butt;stroke-linejoin:miter;stroke-miterlimit:4;stroke-dasharray:none;stroke-opacity:1" /><rect
     y="-571.55023"
     x="-709.97369"
     height="124.58148"
     width="266.26993"
     id="rect4596"
     style="fill:#d41f28;fill-opacity:1;stroke:none;stroke-width:53.33333206;stroke-linecap:round;stroke-linejoin:miter;stroke-miterlimit:4;stroke-dasharray:none;stroke-opacity:1" /></g><text
   transform="rotate(-43.888523)"
   id="text4604"
   y="16.541994"
   x="-511.79572"
   style="font-style:normal;font-variant:normal;font-weight:normal;font-stretch:normal;font-size:169.24685669px;line-height:1.25;font-family:sans-serif;-inkscape-font-specification:'sans-serif, Normal';font-variant-ligatures:normal;font-variant-caps:normal;font-variant-numeric:normal;font-feature-settings:normal;text-align:start;letter-spacing:0px;word-spacing:0px;writing-mode:lr-tb;text-anchor:start;fill:#d41f28;fill-opacity:1;stroke:none;stroke-width:0.97642422"
   xml:space="preserve"><tspan
     style="font-style:normal;font-variant:normal;font-weight:normal;font-stretch:normal;font-size:169.24685669px;font-family:sans-serif;-inkscape-font-specification:'sans-serif, Normal';font-variant-ligatures:normal;font-variant-caps:normal;font-variant-numeric:normal;font-feature-settings:normal;text-align:start;writing-mode:lr-tb;text-anchor:start;stroke-width:0.97642422"
     y="16.541994"
     x="-511.79572"
     id="tspan4602">OBSERVATORY</tspan></text>


</g></svg>