<svg xmlns="http://www.w3.org/2000/svg" width="1140.117" height="1108.073"><defs><clipPath id="a"><path d="M0 306.233h1108.932V0H0z"/></clipPath></defs><g clip-path="url(#a)" transform="matrix(1.02803 0 0 -1.02803 .244 962.937)"><path d="M237.655 199.474c-1.752 59.313-51.273 106.071-110.612 106.071H21.733c-12.426 0-22.5-10.073-22.5-22.5V23.685C-.766 11.957 8.007 1.8 19.69.767c13.346-1.177 24.545 9.308 24.545 22.41v230.115a7.253 7.253 0 0 0 7.253 7.253h75.877c34.26 0 64.183-27.977 65.305-62.219 1-30.552-19.268-57.273-48.64-64.625a22.726 22.726 0 0 1-6.982-2.919c-8.071-5.082-12.084-14.95-9.841-24.22a22.615 22.615 0 0 1 4.152-8.633l65.188-87.658c6.999-9.41 20.099-12.328 30.09-6.184 11.413 7.02 14.142 22.116 6.323 32.63l-48.636 65.4c33.406 19.831 54.538 56.565 53.332 97.357M415.919 260.546c28.697 0 55.676-11.175 75.967-31.466 8.787-8.79 23.034-8.789 31.819-.002 8.787 8.786 8.788 23.033 0 31.82-28.79 28.792-67.068 44.647-107.786 44.647-84.052 0-152.434-68.382-152.434-152.434C263.485 69.06 331.867.679 415.919.679c40.718 0 78.997 15.856 107.787 44.647 8.787 8.786 8.786 23.034-.001 31.82-8.787 8.787-23.032 8.786-31.82-.001-20.29-20.292-47.27-31.467-75.966-31.467-59.24 0-107.434 48.196-107.434 107.434 0 59.24 48.195 107.435 107.434 107.435M698.511 45.677c-59.239 0-107.435 48.195-107.435 107.435s48.196 107.433 107.435 107.433c59.24 0 107.435-48.194 107.435-107.433 0-59.24-48.196-107.435-107.435-107.435m0 259.868c-84.053 0-152.435-68.382-152.435-152.433C546.076 69.06 614.458.677 698.511.677S850.946 69.06 850.946 153.112c0 84.051-68.382 152.433-152.435 152.433M1100.342 125.83v.002c-5.532 9.822-12.993 17.989-22.178 24.273-8.807 6.014-18.991 10.852-30.268 14.378-10.702 3.342-21.95 6.286-33.434 8.75a2477.07 2477.07 0 0 1-33.233 6.869c-10.302 2.046-19.858 4.73-28.402 7.979-8.056 3.06-14.888 6.979-20.308 11.644-4.761 4.096-7.727 9.523-9.073 16.603-1.141 5.743-.803 11.352 1.035 17.148 1.825 5.755 5.238 11.132 10.145 15.979 5.027 4.96 12.046 9.12 20.86 12.369 9.022 3.319 20.473 5.002 34.036 5.002 8.818 0 17.497-1.066 25.79-3.167 7.999-2.03 15.193-5.207 21.385-9.443 5.887-4.038 10.609-9.317 14.03-15.69 3.401-6.354 5.126-14.117 5.126-23.076.011-8.86 5.98-22.041 22.377-22.041 8.17 0 13.11 3.39 15.814 6.233 5.816 6.116 5.898 14.375 5.856 15.943-.017 12.247-2.36 23.922-6.96 34.703-4.687 10.977-11.793 20.739-21.12 29.012-9.24 8.18-20.921 14.686-34.718 19.338-13.604 4.578-29.612 6.898-47.58 6.898-17.637 0-33.52-2.176-47.21-6.468-13.859-4.343-25.625-10.325-34.97-17.78-9.503-7.58-16.801-16.465-21.69-26.412-4.906-9.975-7.392-20.42-7.392-31.048 0-14.933 3.107-27.586 9.236-37.606 5.971-9.783 13.86-17.9 23.448-24.125 9.214-5.994 19.88-10.81 31.703-14.311a424.025 424.025 0 0 1 34.852-8.727 1737.722 1737.722 0 0 0 34-7.376c10.444-2.387 19.776-5.563 27.733-9.441 7.432-3.626 13.508-8.307 18.057-13.912 4.145-5.12 6.16-11.861 6.16-20.612 0-6.43-1.26-12.611-3.748-18.371-2.419-5.61-6.26-10.65-11.42-14.981-5.305-4.455-12.419-8.081-21.145-10.778-8.998-2.78-19.95-4.19-32.555-4.19-10.855 0-21.136 1.14-30.556 3.386-9.074 2.157-17.146 5.64-23.994 10.356-6.677 4.59-12.227 10.659-16.496 18.036-4.248 7.324-6.923 16.486-7.944 27.148-.022 2.433-.563 10.86-6.535 17.118-3.984 4.17-9.498 6.435-15.947 6.548-7.883.106-12.808-3.177-15.544-5.997-6.482-6.68-6.53-16.311-6.476-18.146.017-16.123 3.077-30.437 9.097-42.545 6.042-12.148 14.591-22.47 25.41-30.676 10.657-8.098 23.397-14.2 37.866-18.135C957.623 2.64 973.12.688 989.522.688c36.762 0 65.93 7.56 86.693 22.474 21.617 15.523 32.58 37.625 32.58 65.694 0 14.558-2.846 26.998-8.453 36.975" fill="#d41f28"/></g><path d="M37.101 590.911c0-95.163 25.385-186.711 71.372-266.365m324.59-248.521A532.89 532.89 0 0 1 569.83 58.182c91.976 0 183.951 23.79 266.365 71.372 164.827 95.163 266.365 271.031 266.365 461.357" fill="none" stroke="#d41f28" stroke-width="72.581" stroke-linecap="round"/><g fill="#d41f28"><path d="M204.213 0L408.87 196.866 271.44 339.734 66.783 142.868z"/><path d="M373.235 214.984l191.898 184.593-86.367 89.785-191.898-184.594z"/><text transform="translate(501.472 1089.839)" y="16.542" x="-511.796" style="line-height:1.25;-inkscape-font-specification:'sans-serif, Normal';font-variant-ligatures:normal;font-variant-caps:normal;font-variant-numeric:normal;font-feature-settings:normal;text-align:start" font-weight="400" font-size="169.247" font-family="sans-serif" letter-spacing="0" word-spacing="0" stroke-width=".976"><tspan style="-inkscape-font-specification:'sans-serif, Normal';font-variant-ligatures:normal;font-variant-caps:normal;font-variant-numeric:normal;font-feature-settings:normal;text-align:start" y="16.542" x="-511.796">OBSERVATORY</tspan></text></g></svg>